# xmcd CD database file
#
# Track frame offsets:
#	150
#	13497
#	27802
#	42567
#	55725
#	70180
#	82485
#	96387
#	109432
#	120605
#	134372
#	148402
#	162530
#	176682
#	191405
#	205487
#	220045
#	234572
#	247482
#	260620
#	270602
#	281665
#	297407
#	311025
#	321830
#
# Disc length: 4514 seconds
#
# Revision: 0
# Processed by: cddbd v1.5.1PL0 Copyright (c) Steve Scherf et al.
# Submitted via: CDex 1.51
#
DISCID=a411a019
DTITLE=Various Artist - Trumpet Royalty
DYEAR=1900
DGENRE=Jazz
TTITLE0=Military Mike
TTITLE1=If I Had My Way 'Bout My Sweetie
TTITLE2=Dinah
TTITLE3=There'll Be A Great Day In The Morning
TTITLE4=Lights Out
TTITLE5=Where's My Sweetheart Hiding
TTITLE6=Hoohihi Oe Ke Ike Mai
TTITLE7=You're Out Of This World To Me
TTITLE8=You Took Advantage Of Me
TTITLE9=Take The "A" Train
TTITLE10=Let Me Off Uptown
TTITLE11=Memories Of You
TTITLE12=If I Could Be With You
TTITLE13=I Got A Woman
TTITLE14=What Did I Do To Be So Black And Blue
TTITLE15=Ain't Cha Gonna Do It
TTITLE16=After You've Gone
TTITLE17=Birminham Boogie
TTITLE18=Anything
TTITLE19=For Jumpers Only
TTITLE20=Bill's Downbeat
TTITLE21=On The Sunny Side Of The Street
TTITLE22=Puddle Wump
TTITLE23=Five O'Clock Mood
TTITLE24=Flash!
EXTD=
EXTT0=
EXTT1=
EXTT2=
EXTT3=
EXTT4=
EXTT5=
EXTT6=
EXTT7=
EXTT8=
EXTT9=
EXTT10=
EXTT11=
EXTT12=
EXTT13=
EXTT14=
EXTT15=
EXTT16=
EXTT17=
EXTT18=
EXTT19=
EXTT20=
EXTT21=
EXTT22=
EXTT23=
EXTT24=
PLAYORDER=
